<svg width="512" height="512" viewBox="0 0 512 512" fill="none" xmlns="http://www.w3.org/2000/svg">
<path d="M60 343.258V168H84.8769L174.62 286.656V168H204.612V343.258H179.735L89.9918 224.601V343.258H60Z" fill="black"/>
<mask id="path-2-outside-1_65_293" maskUnits="userSpaceOnUse" x="240.505" y="168.062" width="222" height="175" fill="black">
<rect fill="white" x="240.505" y="168.062" width="222" height="175"/>
<path fill-rule="evenodd" clip-rule="evenodd" d="M295.144 341.196L243.505 170.062H251.283L300.978 335.573L302.706 341.196H295.144ZM314.991 301.241L311.401 289.313L348.296 170.062H355.426L404.56 329.548L408.084 341.196H401.015L351.754 181.668L314.991 301.241ZM420.376 301.378L416.713 289.246L452.654 170.062H460L420.376 301.378Z"/>
</mask>
<path fill-rule="evenodd" clip-rule="evenodd" d="M295.144 341.196L243.505 170.062H251.283L300.978 335.573L302.706 341.196H295.144ZM314.991 301.241L311.401 289.313L348.296 170.062H355.426L404.56 329.548L408.084 341.196H401.015L351.754 181.668L314.991 301.241ZM420.376 301.378L416.713 289.246L452.654 170.062H460L420.376 301.378Z" fill="black"/>
<path d="M407.277 335.308L405.42 329.283L403.7 329.813L405.556 335.838L407.277 335.308ZM243.505 170.062V168.262H241.082L241.782 170.582L243.505 170.062ZM295.144 341.196L293.421 341.716L293.807 342.996H295.144V341.196ZM251.283 170.062L253.007 169.544L252.622 168.262H251.283V170.062ZM300.978 335.573L299.254 336.091L299.257 336.102L300.978 335.573ZM302.706 341.196V342.996H305.143L304.427 340.667L302.706 341.196ZM311.401 289.313L309.681 288.781L309.519 289.306L309.677 289.832L311.401 289.313ZM314.991 301.241L313.267 301.759L314.973 307.425L316.711 301.77L314.991 301.241ZM348.296 170.062V168.262H346.968L346.576 169.53L348.296 170.062ZM355.426 170.062L357.146 169.532L356.755 168.262H355.426V170.062ZM404.56 329.548L406.283 329.027L406.28 329.018L404.56 329.548ZM408.084 341.196V342.996H410.51L409.807 340.675L408.084 341.196ZM401.015 341.196L399.295 341.727L399.687 342.996H401.015V341.196ZM351.754 181.668L353.474 181.137L351.751 175.555L350.034 181.139L351.754 181.668ZM416.713 289.246L414.99 288.726L414.833 289.246L414.99 289.766L416.713 289.246ZM420.376 301.378L418.653 301.898L420.376 307.608L422.099 301.898L420.376 301.378ZM452.654 170.062V168.262H451.317L450.93 169.542L452.654 170.062ZM460 170.062L461.723 170.582L462.423 168.262H460V170.062ZM241.782 170.582L293.421 341.716L296.867 340.676L245.228 169.542L241.782 170.582ZM251.283 168.262H243.505V171.862H251.283V168.262ZM302.702 335.055L253.007 169.544L249.559 170.58L299.254 336.091L302.702 335.055ZM304.427 340.667L302.698 335.044L299.257 336.102L300.986 341.725L304.427 340.667ZM295.144 342.996H302.706V339.396H295.144V342.996ZM309.677 289.832L313.267 301.759L316.715 300.722L313.124 288.795L309.677 289.832ZM346.576 169.53L309.681 288.781L313.12 289.845L350.015 170.594L346.576 169.53ZM355.426 168.262H348.296V171.862H355.426V168.262ZM406.28 329.018L357.146 169.532L353.705 170.592L402.84 330.078L406.28 329.018ZM409.807 340.675L406.283 329.027L402.837 330.069L406.361 341.717L409.807 340.675ZM401.015 342.996H408.084V339.396H401.015V342.996ZM350.035 182.199L399.295 341.727L402.735 340.665L353.474 181.137L350.035 182.199ZM316.711 301.77L353.475 182.197L350.034 181.139L313.27 300.712L316.711 301.77ZM414.99 289.766L418.653 301.898L422.099 300.858L418.437 288.726L414.99 289.766ZM450.93 169.542L414.99 288.726L418.437 289.766L454.377 170.582L450.93 169.542ZM460 168.262H452.654V171.862H460V168.262ZM422.099 301.898L461.723 170.582L458.277 169.542L418.653 300.858L422.099 301.898Z" fill="black" mask="url(#path-2-outside-1_65_293)"/>
</svg>
