<svg width="211" height="83" viewBox="0 0 211 83" fill="none" xmlns="http://www.w3.org/2000/svg">
<path fill-rule="evenodd" clip-rule="evenodd" d="M9.354 32.9109C9.354 22.988 17.3148 14.969 27.0841 14.969C30.2608 14.969 33.2457 15.8162 35.8248 17.3011L37.9448 18.7644L36.6583 22.1039L35.092 20.8993C32.7739 19.4391 30.1098 18.7059 27.2602 18.7059C19.7052 18.7059 13.3548 24.744 13.3863 32.9417C13.424 41.2133 19.702 47.1683 27.2602 47.1683C30.0312 47.1683 32.6387 46.4474 34.9064 45.0734L36.4099 43.949L37.6869 47.2515L35.6141 48.6347C33.0821 50.0457 30.1759 50.8466 27.0841 50.8466C17.3148 50.8466 9.354 42.8276 9.354 32.9109Z" fill="white"/>
<path fill-rule="evenodd" clip-rule="evenodd" d="M101.499 50.8466V14.9104H125.18L122.557 21.6941H109.274V30.9146H118.993L116.493 37.3809H109.274V50.8466H101.499Z" fill="white"/>
<path fill-rule="evenodd" clip-rule="evenodd" d="M126.74 50.8468V21.7774L129.404 14.9167H133.688L133.685 50.8468H126.74Z" fill="white"/>
<path fill-rule="evenodd" clip-rule="evenodd" d="M70.9987 50.7635L69.3442 50.7512V14.9075H78.9783C90.3957 14.8582 96.0919 22.8217 96.0919 32.8401C96.0919 42.84 90.7386 50.7697 78.9783 50.7635H70.9987ZM78.6512 47.461C86.6025 47.6736 92.1634 42.2485 92.566 34.6362L92.5943 32.8925V32.8494L92.588 31.1642C92.3552 23.2037 87.3102 18.3886 78.6638 18.1976L73.0179 18.2284L73.0242 47.461H78.6512Z" fill="white"/>
<path fill-rule="evenodd" clip-rule="evenodd" d="M54.6055 14.9075H51.218L37.4385 50.7697H41.6217L44.009 44.1278H44.0153L45.1791 40.8992H60.3677L61.6195 44.1278L64.2018 50.7697H68.3819L54.6055 14.9075ZM52.9133 19.4422L59.1285 37.3564H46.456L52.9133 19.4422Z" fill="white"/>
<path fill-rule="evenodd" clip-rule="evenodd" d="M172.68 15.4743C172.595 15.4281 172.504 15.4034 172.409 15.3973C172.315 15.3942 172.202 15.3911 172.07 15.3911H172.057V16.9469H172.07C172.214 16.9469 172.334 16.9438 172.431 16.9407C172.529 16.9345 172.623 16.9068 172.711 16.8514C172.815 16.7867 172.897 16.6973 172.95 16.5833C173.004 16.4694 173.032 16.3307 173.032 16.1674C173.032 16.0042 173.004 15.8625 172.947 15.7485C172.887 15.6314 172.799 15.5421 172.68 15.4743Z" fill="white"/>
<path fill-rule="evenodd" clip-rule="evenodd" d="M176.885 14.8674C176.193 11.1705 172.567 8.73371 168.799 9.41146C165.075 10.0892 162.602 13.5457 163.203 17.184V17.1964C164.326 23.0034 160.646 25.622 151.522 24.7779C150.87 24.7163 150.213 24.7071 149.537 24.7471C142.193 25.1969 136.6 31.4014 137.056 38.5886C137.509 45.7851 143.85 51.2656 151.191 50.8282C158.536 50.3722 164.128 44.1647 163.675 36.9774C163.606 35.8992 163.398 34.8548 163.087 33.8629C160.885 26.7557 163.75 22.3627 169.497 22.8802C169.978 22.8925 170.752 22.8802 171.318 22.7878C175.089 22.107 177.58 18.558 176.885 14.8674ZM151.525 44.5313C147.7 45.1597 144.07 42.6305 143.426 38.8782C142.781 35.1321 145.366 31.5739 149.191 30.9424C153.019 30.317 156.648 32.8462 157.296 36.5954C157.935 40.3415 155.349 43.8997 151.525 44.5313ZM168.956 15.4003H167.874V15.8378H168.871V16.3122H167.874V16.9407H168.956V17.4151H167.239V14.9259H168.956V15.4003ZM171.088 15.4003H170.022V15.8686H171.004V16.343H170.022V17.412H169.387V14.9228H171.088V15.4003ZM173.529 16.7959C173.425 16.9776 173.296 17.1193 173.136 17.2179C173.004 17.3011 172.859 17.3566 172.705 17.3781C172.551 17.4028 172.384 17.4151 172.208 17.4151H171.412V14.9259H172.202C172.381 14.9259 172.548 14.9382 172.702 14.9598C172.859 14.9813 173.004 15.0368 173.139 15.1231C173.306 15.2278 173.438 15.3695 173.535 15.5451C173.633 15.7238 173.68 15.9333 173.68 16.1736C173.686 16.4046 173.633 16.6141 173.529 16.7959Z" fill="white"/>
<path d="M4.112 79V68.504L4.432 68.824H0.176V67.8H9.216V68.824H4.976L5.28 68.504V79H4.112ZM13.7473 79.08C12.8726 79.08 12.1046 78.8987 11.4433 78.536C10.7819 78.1627 10.2646 77.656 9.89125 77.016C9.51792 76.3653 9.33125 75.624 9.33125 74.792C9.33125 73.96 9.50725 73.224 9.85925 72.584C10.2219 71.944 10.7126 71.4427 11.3313 71.08C11.9606 70.7067 12.6646 70.52 13.4433 70.52C14.2326 70.52 14.9313 70.7013 15.5393 71.064C16.1579 71.416 16.6433 71.9173 16.9953 72.568C17.3473 73.208 17.5233 73.9493 17.5233 74.792C17.5233 74.8453 17.5179 74.904 17.5073 74.968C17.5073 75.0213 17.5073 75.08 17.5073 75.144H10.1953V74.296H16.8993L16.4513 74.632C16.4513 74.024 16.3179 73.4853 16.0513 73.016C15.7953 72.536 15.4433 72.1627 14.9953 71.896C14.5473 71.6293 14.0299 71.496 13.4433 71.496C12.8673 71.496 12.3499 71.6293 11.8913 71.896C11.4326 72.1627 11.0753 72.536 10.8193 73.016C10.5633 73.496 10.4353 74.0453 10.4353 74.664V74.84C10.4353 75.48 10.5739 76.0453 10.8513 76.536C11.1393 77.016 11.5339 77.3947 12.0353 77.672C12.5473 77.9387 13.1286 78.072 13.7793 78.072C14.2913 78.072 14.7659 77.9813 15.2033 77.8C15.6513 77.6187 16.0353 77.3413 16.3553 76.968L16.9953 77.704C16.6219 78.152 16.1526 78.4933 15.5873 78.728C15.0326 78.9627 14.4193 79.08 13.7473 79.08ZM18.4275 79L21.9795 74.392L21.9635 74.952L18.5875 70.6H19.8675L22.6355 74.2L22.1555 74.184L24.9235 70.6H26.1715L22.7635 75L22.7795 74.392L26.3635 79H25.0675L22.1395 75.16L22.5875 75.224L19.7075 79H18.4275ZM28.2254 79V70.6H29.3614V74.312H34.6574V70.6H35.7934V79H34.6574V75.288H29.3614V79H28.2254ZM39.0223 79V70.6H40.1583V77.272L45.7743 70.6H46.7823V79H45.6463V72.312L40.0463 79H39.0223ZM55.3499 75.448C54.8592 75.6613 54.3632 75.832 53.8619 75.96C53.3712 76.0773 52.8805 76.136 52.3899 76.136C51.3979 76.136 50.6139 75.912 50.0379 75.464C49.4619 75.0053 49.1739 74.3013 49.1739 73.352V70.6H50.2939V73.288C50.2939 73.928 50.5019 74.408 50.9179 74.728C51.3339 75.048 51.8939 75.208 52.5979 75.208C53.0245 75.208 53.4725 75.1547 53.9419 75.048C54.4112 74.9307 54.8859 74.7653 55.3659 74.552L55.3499 75.448ZM55.2539 79V70.6H56.3899V79H55.2539ZM63.216 79.08C62.3413 79.08 61.5733 78.8987 60.912 78.536C60.2507 78.1627 59.7333 77.656 59.36 77.016C58.9867 76.3653 58.8 75.624 58.8 74.792C58.8 73.96 58.976 73.224 59.328 72.584C59.6907 71.944 60.1813 71.4427 60.8 71.08C61.4293 70.7067 62.1333 70.52 62.912 70.52C63.7013 70.52 64.4 70.7013 65.008 71.064C65.6267 71.416 66.112 71.9173 66.464 72.568C66.816 73.208 66.992 73.9493 66.992 74.792C66.992 74.8453 66.9867 74.904 66.976 74.968C66.976 75.0213 66.976 75.08 66.976 75.144H59.664V74.296H66.368L65.92 74.632C65.92 74.024 65.7867 73.4853 65.52 73.016C65.264 72.536 64.912 72.1627 64.464 71.896C64.016 71.6293 63.4987 71.496 62.912 71.496C62.336 71.496 61.8187 71.6293 61.36 71.896C60.9013 72.1627 60.544 72.536 60.288 73.016C60.032 73.496 59.904 74.0453 59.904 74.664V74.84C59.904 75.48 60.0427 76.0453 60.32 76.536C60.608 77.016 61.0027 77.3947 61.504 77.672C62.016 77.9387 62.5973 78.072 63.248 78.072C63.76 78.072 64.2347 77.9813 64.672 77.8C65.12 77.6187 65.504 77.3413 65.824 76.968L66.464 77.704C66.0907 78.152 65.6213 78.4933 65.056 78.728C64.5013 78.9627 63.888 79.08 63.216 79.08ZM73.0266 79.08C72.1946 79.08 71.448 78.8987 70.7866 78.536C70.136 78.1627 69.624 77.656 69.2506 77.016C68.8773 76.3653 68.6906 75.624 68.6906 74.792C68.6906 73.9493 68.8773 73.208 69.2506 72.568C69.624 71.928 70.136 71.4267 70.7866 71.064C71.448 70.7013 72.1946 70.52 73.0266 70.52C73.7413 70.52 74.3866 70.6587 74.9626 70.936C75.5386 71.2133 75.992 71.6293 76.3226 72.184L75.4746 72.76C75.1866 72.3333 74.8293 72.0187 74.4026 71.816C73.976 71.6133 73.512 71.512 73.0106 71.512C72.4133 71.512 71.8746 71.6507 71.3946 71.928C70.9146 72.1947 70.536 72.5733 70.2586 73.064C69.9813 73.5547 69.8426 74.1307 69.8426 74.792C69.8426 75.4533 69.9813 76.0293 70.2586 76.52C70.536 77.0107 70.9146 77.3947 71.3946 77.672C71.8746 77.9387 72.4133 78.072 73.0106 78.072C73.512 78.072 73.976 77.9707 74.4026 77.768C74.8293 77.5653 75.1866 77.256 75.4746 76.84L76.3226 77.416C75.992 77.96 75.5386 78.376 74.9626 78.664C74.3866 78.9413 73.7413 79.08 73.0266 79.08ZM84.6823 79L81.2263 74.84L82.1703 74.28L86.0263 79H84.6823ZM78.5223 79V70.6H79.6583V79H78.5223ZM79.3063 75.256V74.28H82.0103V75.256H79.3063ZM82.2663 74.92L81.2103 74.76L84.5543 70.6H85.7863L82.2663 74.92ZM92.8789 79V77.144L92.8309 76.84V73.736C92.8309 73.0213 92.6282 72.472 92.2229 72.088C91.8282 71.704 91.2362 71.512 90.4469 71.512C89.9029 71.512 89.3855 71.6027 88.8949 71.784C88.4042 71.9653 87.9882 72.2053 87.6469 72.504L87.1349 71.656C87.5615 71.2933 88.0735 71.016 88.6709 70.824C89.2682 70.6213 89.8975 70.52 90.5589 70.52C91.6469 70.52 92.4842 70.792 93.0709 71.336C93.6682 71.8693 93.9669 72.6853 93.9669 73.784V79H92.8789ZM89.9829 79.08C89.3535 79.08 88.8042 78.9787 88.3349 78.776C87.8762 78.5627 87.5242 78.2747 87.2789 77.912C87.0335 77.5387 86.9109 77.112 86.9109 76.632C86.9109 76.1947 87.0122 75.8 87.2149 75.448C87.4282 75.0853 87.7695 74.7973 88.2389 74.584C88.7189 74.36 89.3589 74.248 90.1589 74.248H93.0549V75.096H90.1909C89.3802 75.096 88.8149 75.24 88.4949 75.528C88.1855 75.816 88.0309 76.1733 88.0309 76.6C88.0309 77.08 88.2175 77.464 88.5909 77.752C88.9642 78.04 89.4869 78.184 90.1589 78.184C90.7989 78.184 91.3482 78.04 91.8069 77.752C92.2762 77.4533 92.6175 77.0267 92.8309 76.472L93.0869 77.256C92.8735 77.8107 92.5002 78.2533 91.9669 78.584C91.4442 78.9147 90.7829 79.08 89.9829 79.08ZM102.415 79V75.976L102.623 76.216H99.775C98.6977 76.216 97.855 75.9813 97.247 75.512C96.639 75.0427 96.335 74.36 96.335 73.464C96.335 72.504 96.6603 71.7893 97.311 71.32C97.9617 70.84 98.831 70.6 99.919 70.6H103.455V79H102.415ZM96.271 79L98.575 75.768H99.759L97.503 79H96.271ZM102.415 75.64V71.256L102.623 71.592H99.951C99.1723 71.592 98.5643 71.7413 98.127 72.04C97.7003 72.3387 97.487 72.824 97.487 73.496C97.487 74.744 98.2817 75.368 99.871 75.368H102.623L102.415 75.64ZM110.882 79V70.6H118.434V79H117.298V71.288L117.586 71.592H111.73L112.018 71.288V79H110.882ZM125.119 79.08C124.308 79.08 123.578 78.8987 122.927 78.536C122.287 78.1627 121.78 77.656 121.407 77.016C121.034 76.3653 120.847 75.624 120.847 74.792C120.847 73.9493 121.034 73.208 121.407 72.568C121.78 71.928 122.287 71.4267 122.927 71.064C123.567 70.7013 124.298 70.52 125.119 70.52C125.951 70.52 126.687 70.7013 127.327 71.064C127.978 71.4267 128.484 71.928 128.847 72.568C129.22 73.208 129.407 73.9493 129.407 74.792C129.407 75.624 129.22 76.3653 128.847 77.016C128.484 77.656 127.978 78.1627 127.327 78.536C126.676 78.8987 125.94 79.08 125.119 79.08ZM125.119 78.072C125.727 78.072 126.266 77.9387 126.735 77.672C127.204 77.3947 127.572 77.0107 127.839 76.52C128.116 76.0187 128.255 75.4427 128.255 74.792C128.255 74.1307 128.116 73.5547 127.839 73.064C127.572 72.5733 127.204 72.1947 126.735 71.928C126.266 71.6507 125.732 71.512 125.135 71.512C124.538 71.512 124.004 71.6507 123.535 71.928C123.066 72.1947 122.692 72.5733 122.415 73.064C122.138 73.5547 121.999 74.1307 121.999 74.792C121.999 75.4427 122.138 76.0187 122.415 76.52C122.692 77.0107 123.066 77.3947 123.535 77.672C124.004 77.9387 124.532 78.072 125.119 78.072ZM137.548 78.456V71.592H133.5L133.404 73.464C133.383 74.0293 133.345 74.584 133.292 75.128C133.249 75.672 133.169 76.1733 133.052 76.632C132.945 77.08 132.791 77.448 132.588 77.736C132.385 78.0133 132.124 78.1733 131.804 78.216L130.668 78.008C130.999 78.0187 131.271 77.9013 131.484 77.656C131.697 77.4 131.863 77.0533 131.98 76.616C132.097 76.1787 132.183 75.6827 132.236 75.128C132.289 74.5627 132.332 73.9867 132.364 73.4L132.476 70.6H138.684V78.456H137.548ZM130.316 81.032V78.008H139.996V81.032H138.924V79H131.388V81.032H130.316ZM147.97 78.456V71.592H143.922L143.826 73.464C143.804 74.0293 143.767 74.584 143.714 75.128C143.671 75.672 143.591 76.1733 143.474 76.632C143.367 77.08 143.212 77.448 143.01 77.736C142.807 78.0133 142.546 78.1733 142.226 78.216L141.09 78.008C141.42 78.0187 141.692 77.9013 141.906 77.656C142.119 77.4 142.284 77.0533 142.402 76.616C142.519 76.1787 142.604 75.6827 142.658 75.128C142.711 74.5627 142.754 73.9867 142.786 73.4L142.898 70.6H149.106V78.456H147.97ZM140.738 81.032V78.008H150.418V81.032H149.346V79H141.81V81.032H140.738ZM156.232 79.08C155.357 79.08 154.589 78.8987 153.928 78.536C153.266 78.1627 152.749 77.656 152.376 77.016C152.002 76.3653 151.816 75.624 151.816 74.792C151.816 73.96 151.992 73.224 152.344 72.584C152.706 71.944 153.197 71.4427 153.816 71.08C154.445 70.7067 155.149 70.52 155.928 70.52C156.717 70.52 157.416 70.7013 158.024 71.064C158.642 71.416 159.128 71.9173 159.48 72.568C159.832 73.208 160.008 73.9493 160.008 74.792C160.008 74.8453 160.002 74.904 159.992 74.968C159.992 75.0213 159.992 75.08 159.992 75.144H152.68V74.296H159.384L158.936 74.632C158.936 74.024 158.802 73.4853 158.536 73.016C158.28 72.536 157.928 72.1627 157.48 71.896C157.032 71.6293 156.514 71.496 155.928 71.496C155.352 71.496 154.834 71.6293 154.376 71.896C153.917 72.1627 153.56 72.536 153.304 73.016C153.048 73.496 152.92 74.0453 152.92 74.664V74.84C152.92 75.48 153.058 76.0453 153.336 76.536C153.624 77.016 154.018 77.3947 154.52 77.672C155.032 77.9387 155.613 78.072 156.264 78.072C156.776 78.072 157.25 77.9813 157.688 77.8C158.136 77.6187 158.52 77.3413 158.84 76.968L159.48 77.704C159.106 78.152 158.637 78.4933 158.072 78.728C157.517 78.9627 156.904 79.08 156.232 79.08ZM166.858 79.08C166.133 79.08 165.477 78.9147 164.89 78.584C164.304 78.2427 163.834 77.7573 163.482 77.128C163.141 76.488 162.97 75.7093 162.97 74.792C162.97 73.8747 163.141 73.1013 163.482 72.472C163.824 71.832 164.288 71.3467 164.874 71.016C165.461 70.6853 166.122 70.52 166.858 70.52C167.658 70.52 168.373 70.7013 169.002 71.064C169.642 71.416 170.144 71.9173 170.506 72.568C170.869 73.208 171.05 73.9493 171.05 74.792C171.05 75.6453 170.869 76.392 170.506 77.032C170.144 77.672 169.642 78.1733 169.002 78.536C168.373 78.8987 167.658 79.08 166.858 79.08ZM162.522 82.104V70.6H163.61V73.128L163.498 74.808L163.658 76.504V82.104H162.522ZM166.778 78.072C167.376 78.072 167.909 77.9387 168.378 77.672C168.848 77.3947 169.221 77.0107 169.498 76.52C169.776 76.0187 169.914 75.4427 169.914 74.792C169.914 74.1413 169.776 73.5707 169.498 73.08C169.221 72.5893 168.848 72.2053 168.378 71.928C167.909 71.6507 167.376 71.512 166.778 71.512C166.181 71.512 165.642 71.6507 165.162 71.928C164.693 72.2053 164.32 72.5893 164.042 73.08C163.776 73.5707 163.642 74.1413 163.642 74.792C163.642 75.4427 163.776 76.0187 164.042 76.52C164.32 77.0107 164.693 77.3947 165.162 77.672C165.642 77.9387 166.181 78.072 166.778 78.072ZM183.162 79L180.282 74.84L181.226 74.28L184.522 79H183.162ZM178.394 75.256V74.28H181.05V75.256H178.394ZM181.338 74.92L180.25 74.76L183.05 70.6H184.282L181.338 74.92ZM173.21 79H171.85L175.146 74.28L176.074 74.84L173.21 79ZM178.746 79H177.61V70.6H178.746V79ZM177.962 75.256H175.322V74.28H177.962V75.256ZM175.05 74.92L172.09 70.6H173.322L176.106 74.76L175.05 74.92ZM192.573 79L189.117 74.84L190.061 74.28L193.917 79H192.573ZM186.413 79V70.6H187.549V79H186.413ZM187.197 75.256V74.28H189.901V75.256H187.197ZM190.157 74.92L189.101 74.76L192.445 70.6H193.677L190.157 74.92ZM200.77 79V77.144L200.722 76.84V73.736C200.722 73.0213 200.519 72.472 200.114 72.088C199.719 71.704 199.127 71.512 198.338 71.512C197.794 71.512 197.276 71.6027 196.786 71.784C196.295 71.9653 195.879 72.2053 195.538 72.504L195.026 71.656C195.452 71.2933 195.964 71.016 196.562 70.824C197.159 70.6213 197.788 70.52 198.45 70.52C199.538 70.52 200.375 70.792 200.962 71.336C201.559 71.8693 201.858 72.6853 201.858 73.784V79H200.77ZM197.874 79.08C197.244 79.08 196.695 78.9787 196.226 78.776C195.767 78.5627 195.415 78.2747 195.17 77.912C194.924 77.5387 194.802 77.112 194.802 76.632C194.802 76.1947 194.903 75.8 195.106 75.448C195.319 75.0853 195.66 74.7973 196.13 74.584C196.61 74.36 197.25 74.248 198.049 74.248H200.946V75.096H198.082C197.271 75.096 196.706 75.24 196.386 75.528C196.076 75.816 195.922 76.1733 195.922 76.6C195.922 77.08 196.108 77.464 196.482 77.752C196.855 78.04 197.378 78.184 198.049 78.184C198.69 78.184 199.239 78.04 199.698 77.752C200.167 77.4533 200.508 77.0267 200.722 76.472L200.978 77.256C200.764 77.8107 200.391 78.2533 199.858 78.584C199.335 78.9147 198.674 79.08 197.874 79.08Z" fill="white"/>
</svg>
