<svg width="20" height="21" viewBox="0 0 20 21" fill="none" xmlns="http://www.w3.org/2000/svg">
<path d="M17.2583 10.9212L9.39781 18.2648C8.72501 18.9003 7.9924 19.3089 7.19999 19.4905C6.41506 19.6791 5.64134 19.6686 4.87884 19.4591C4.12381 19.2495 3.45848 18.8689 2.88287 18.3172C2.29977 17.7724 1.89236 17.1509 1.66061 16.4525C1.43635 15.7471 1.4214 15.0277 1.61576 14.2944C1.8176 13.5541 2.25866 12.8662 2.93893 12.2307L13.5692 2.29947C13.9878 1.90837 14.4513 1.63948 14.9596 1.49282C15.4679 1.34616 15.9688 1.32521 16.4622 1.42997C16.9631 1.53473 17.4041 1.7617 17.7854 2.1109C18.1666 2.47407 18.4133 2.88961 18.5254 3.35754C18.6376 3.81848 18.6114 4.28641 18.447 4.76132C18.29 5.22924 18.0022 5.66225 17.5835 6.06033L7.19999 15.7715C6.93087 16.0299 6.64307 16.1452 6.33657 16.1172C6.03755 16.0823 5.78712 15.9741 5.58528 15.7925C5.39839 15.6039 5.28625 15.3734 5.24888 15.1011C5.21897 14.8217 5.34232 14.5493 5.61892 14.2839L12.93 7.45363C13.0795 7.31395 13.1543 7.15681 13.1543 6.98222C13.1617 6.80063 13.0982 6.64349 12.9636 6.5108C12.8216 6.38509 12.6571 6.32572 12.4703 6.33271C12.2834 6.33271 12.1114 6.40604 11.9544 6.5527L4.60972 13.404C4.25837 13.7392 4.02663 14.1128 3.91449 14.5249C3.80236 14.9369 3.80236 15.342 3.91449 15.7401C4.02663 16.1312 4.23594 16.4734 4.54244 16.7667C4.87884 17.074 5.25635 17.2801 5.67498 17.3848C6.09361 17.4896 6.51972 17.4861 6.9533 17.3743C7.38688 17.2556 7.78309 17.0286 8.14191 16.6934L18.5703 6.95079C19.2207 6.34318 19.6468 5.69367 19.8486 5.00226C20.0505 4.30387 20.0505 3.62293 19.8486 2.95945C19.6468 2.29598 19.273 1.70583 18.7273 1.18902C18.1816 0.67919 17.5536 0.329992 16.8435 0.141425C16.1333 -0.0471417 15.4007 -0.0471417 14.6456 0.141425C13.8981 0.323008 13.1991 0.721094 12.5487 1.33568L1.87367 11.2983C1.22329 11.9059 0.74486 12.5624 0.438363 13.2678C0.131865 13.9732 -0.013908 14.6855 0.0010431 15.4049C0.0159942 16.1242 0.176718 16.8191 0.483216 17.4896C0.797189 18.167 1.24572 18.7746 1.82881 19.3124C2.40443 19.8502 3.04733 20.2622 3.75751 20.5486C4.47516 20.8349 5.21897 20.9851 5.98896 20.999C6.76641 21.013 7.53266 20.8768 8.28769 20.5905C9.04272 20.3111 9.74168 19.8676 10.3846 19.26L18.29 11.885C18.432 11.7523 18.503 11.5881 18.503 11.3926C18.503 11.1901 18.432 11.0224 18.29 10.8897C18.1479 10.757 17.976 10.6977 17.7742 10.7117C17.5798 10.7186 17.4079 10.7885 17.2583 10.9212Z" fill="#458BF4"/>
</svg>
